<svg xmlns="http://www.w3.org/2000/svg" width="128" height="128" fill="none" viewBox="0 0 128 128"><path fill="url(#paint0_linear_3_59)" d="M20 91H108V112C108 116.418 104.418 120 100 120H28C23.5817 120 20 116.418 20 112V91Z"/><rect width="88" height="96" x="20" y="8" fill="#62A0EA" rx="8"/><rect width="72" height="80" x="28" y="16" fill="#3368AA"/><rect width="29" height="20" x="71" y="32" fill="#B5835A"/><rect width="18" height="5" x="75" y="35" fill="#fff" opacity=".5"/><rect width="12" height="3" x="75" y="42" fill="#fff" opacity=".5"/><rect width="29" height="20" x="28" y="76" fill="#B5835A"/><rect width="18" height="5" x="32" y="79" fill="#fff" opacity=".5"/><rect width="12" height="3" x="32" y="86" fill="#fff" opacity=".5"/><rect width="72" height="7" x="28" y="52" fill="#62A0EA"/><rect width="43" height="28" x="28" y="24" fill="#D4A782"/><rect width="20" height="5" x="31" y="27" fill="#fff" opacity=".5"/><rect width="15" height="3" x="31" y="34" fill="#fff" opacity=".5"/><rect width="43" height="28" fill="#D4A782" transform="matrix(-1 0 0 1 100 68)"/><rect width="20" height="5" x="60" y="71" fill="#fff" opacity=".5"/><rect width="15" height="3" x="60" y="78" fill="#fff" opacity=".5"/><defs><linearGradient id="paint0_linear_3_59" x1="20" x2="108" y1="120" y2="120" gradientUnits="userSpaceOnUse"><stop stop-color="#3574BF"/><stop offset=".063" stop-color="#62A0EA"/><stop offset=".125" stop-color="#2C6DBB"/><stop offset=".875" stop-color="#2467B8"/><stop offset=".938" stop-color="#62A0EA"/><stop offset="1" stop-color="#1A5FB4"/></linearGradient></defs></svg>